<svg xmlns="http://www.w3.org/2000/svg" version="1.1" xmlns:xlink="http://www.w3.org/1999/xlink" xmlns:svgjs="http://svgjs.dev/svgjs" width="1500" height="1500" viewBox="0 0 1500 1500"><g transform="matrix(1,0,0,1,-0.3236151603499593,-0.3236151603499593)"><svg viewBox="0 0 343 343" data-background-color="#06413d" preserveAspectRatio="xMidYMid meet" height="1500" width="1500" xmlns="http://www.w3.org/2000/svg" xmlns:xlink="http://www.w3.org/1999/xlink"><g id="tight-bounds" transform="matrix(1,0,0,1,0.07400000000001228,0.07400000000001228)"><svg viewBox="0 0 342.8515585177538 342.8515585177538" height="342.8515585177538" width="342.8515585177538"><g><svg></svg></g><g><svg viewBox="0 0 342.8515585177538 342.8515585177538" height="342.8515585177538" width="342.8515585177538"><g><path d="M0 171.426c0-94.676 76.75-171.426 171.426-171.426 94.676 0 171.426 76.75 171.426 171.426 0 94.676-76.75 171.426-171.426 171.426-94.676 0-171.426-76.75-171.426-171.426zM171.426 339.784c92.982 0 168.358-75.377 168.358-168.358 0-92.982-75.377-168.358-168.358-168.359-92.982 0-168.358 75.377-168.359 168.359 0 92.982 75.377 168.358 168.359 168.358z" data-fill-palette-color="tertiary" fill="#efd9cc" stroke="transparent"></path><ellipse rx="164.56874808852183" ry="164.56874808852183" cx="171.4257792588769" cy="171.4257792588769" fill="#efd9cc" stroke="transparent" stroke-width="0" fill-opacity="1" data-fill-palette-color="tertiary"></ellipse></g><g transform="matrix(1,0,0,1,64.84655864529836,93.48240385051344)"><svg viewBox="0 0 213.15844122715708 155.88675081672693" height="155.88675081672693" width="213.15844122715708"><g><svg viewBox="0 0 213.15844122715708 155.88675081672693" height="155.88675081672693" width="213.15844122715708"><g transform="matrix(1,0,0,1,0,93.81420835207427)"><svg viewBox="0 0 213.15844122715708 62.07254246465264" height="62.07254246465264" width="213.15844122715708"><g id="textblocktransform"><svg viewBox="0 0 213.15844122715708 62.07254246465264" height="62.07254246465264" width="213.15844122715708" id="textblock"><g><svg viewBox="0 0 213.15844122715708 34.01427788476726" height="34.01427788476726" width="213.15844122715708"><g transform="matrix(1,0,0,1,0,0)"><svg width="213.15844122715708" viewBox="4.4 -37.9 308.92 49.3" height="34.01427788476726" data-palette-color="#06413d"><path d="M4.4 0L4.4-34.1 13.5-34.1Q18.9-34.1 21.33-32.1 23.75-30.1 23.75-26L23.75-26Q23.75-24.1 23.23-22.7 22.7-21.3 22.05-20.35L22.05-20.35Q21.3-19.25 20.4-18.45L20.4-18.45Q21.6-18 22.65-17.3 23.7-16.6 24.5-15.6 25.3-14.6 25.78-13.23 26.25-11.85 26.25-10L26.25-10Q26.25-7.95 25.7-6.13 25.15-4.3 23.85-2.95 22.55-1.6 20.4-0.8 18.25 0 15.05 0L15.05 0 4.4 0ZM8.6-30.35L8.6-19.3 16.95-19.3Q17.65-19.85 18.2-20.75L18.2-20.75Q18.7-21.5 19.1-22.63 19.5-23.75 19.5-25.35L19.5-25.35Q19.5-28.3 17.98-29.33 16.45-30.35 13.7-30.35L13.7-30.35 8.6-30.35ZM8.6-15.8L8.6-3.75 15.4-3.75Q18.7-3.75 20.35-5.45 22-7.15 22-10L22-10Q22-11.25 21.68-12.3 21.35-13.35 20.55-14.13 19.75-14.9 18.4-15.35 17.05-15.8 15.05-15.8L15.05-15.8 8.6-15.8ZM33.15 0L33.15-34.1 37.15-34.1 55.05-7.05 55.15-7.05Q55.05-8.5 55-10.15L55-10.15Q54.9-11.55 54.87-13.38 54.85-15.2 54.85-17.1L54.85-17.1 54.85-34.1 58.85-34.1 58.85 0 54.85 0 36.95-27.15 36.85-27.15Q36.9-25.65 37-24L37-24Q37.05-22.55 37.1-20.75 37.15-18.95 37.15-17.05L37.15-17.05 37.15 0 33.15 0ZM83.29-30.25L83.29-3.85 90.04-3.85Q92.79-3.85 95.22-4.55 97.64-5.25 99.47-6.83 101.29-8.4 102.34-10.95 103.39-13.5 103.39-17.15L103.39-17.15Q103.39-20.55 102.44-23.03 101.49-25.5 99.77-27.1 98.04-28.7 95.57-29.48 93.09-30.25 90.04-30.25L90.04-30.25 83.29-30.25ZM79.09 0L79.09-34.1 90.04-34.1Q94.09-34.1 97.37-33.1 100.64-32.1 102.99-30 105.34-27.9 106.62-24.7 107.89-21.5 107.89-17.15L107.89-17.15Q107.89-12.75 106.49-9.53 105.09-6.3 102.69-4.17 100.29-2.05 97.04-1.03 93.79 0 90.04 0L90.04 0 79.09 0ZM131.89-3.95L132.64-0.6Q131.49-0.25 130.27 0 129.04 0.25 127.57 0.45 126.09 0.65 124.49 0.65L124.49 0.65Q121.99 0.65 119.84-0.05 117.69-0.75 116.09-2.3 114.49-3.85 113.57-6.33 112.64-8.8 112.64-12.4L112.64-12.4Q112.64-15.65 113.54-18.13 114.44-20.6 116.02-22.28 117.59-23.95 119.72-24.8 121.84-25.65 124.34-25.65L124.34-25.65Q126.79-25.65 128.59-24.7 130.39-23.75 131.56-22.13 132.74-20.5 133.31-18.32 133.89-16.15 133.89-13.75L133.89-13.75 133.14-11.55 116.99-11.55Q116.99-10 117.39-8.45 117.79-6.9 118.77-5.65 119.74-4.4 121.32-3.63 122.89-2.85 125.24-2.85L125.24-2.85Q126.74-2.85 127.99-3.03 129.24-3.2 130.17-3.43 131.09-3.65 131.89-3.95L131.89-3.95ZM117.14-14.75L129.74-14.75Q129.74-15.1 129.59-16.3 129.44-17.5 128.89-18.8 128.34-20.1 127.19-21.13 126.04-22.15 124.14-22.15L124.14-22.15Q122.04-22.15 120.69-21.28 119.34-20.4 118.54-19.2 117.74-18 117.44-16.75 117.14-15.5 117.14-14.75L117.14-14.75ZM145.49 0L136.24-25.15 140.64-25.15 146.74-7.4 147.84-3.45 147.89-3.45 149.04-7.4 155.54-25.15 159.74-25.15 149.99 0 145.49 0ZM181.38-3.95L182.13-0.6Q180.99-0.25 179.76 0 178.53 0.25 177.06 0.45 175.59 0.65 173.99 0.65L173.99 0.65Q171.49 0.65 169.34-0.05 167.19-0.75 165.59-2.3 163.99-3.85 163.06-6.33 162.13-8.8 162.13-12.4L162.13-12.4Q162.13-15.65 163.03-18.13 163.94-20.6 165.51-22.28 167.09-23.95 169.21-24.8 171.34-25.65 173.84-25.65L173.84-25.65Q176.28-25.65 178.09-24.7 179.88-23.75 181.06-22.13 182.24-20.5 182.81-18.32 183.38-16.15 183.38-13.75L183.38-13.75 182.63-11.55 166.49-11.55Q166.49-10 166.88-8.45 167.28-6.9 168.26-5.65 169.24-4.4 170.81-3.63 172.38-2.85 174.74-2.85L174.74-2.85Q176.24-2.85 177.49-3.03 178.74-3.2 179.66-3.43 180.59-3.65 181.38-3.95L181.38-3.95ZM166.63-14.75L179.24-14.75Q179.24-15.1 179.09-16.3 178.94-17.5 178.38-18.8 177.84-20.1 176.69-21.13 175.53-22.15 173.63-22.15L173.63-22.15Q171.53-22.15 170.19-21.28 168.84-20.4 168.03-19.2 167.24-18 166.94-16.75 166.63-15.5 166.63-14.75L166.63-14.75ZM188.83 0L188.83-37.45 192.83-37.9 192.83 0 188.83 0ZM202.88-12.45L202.88-12.45Q202.88-7.6 205.06-5.23 207.23-2.85 210.93-2.85L210.93-2.85Q214.58-2.85 216.63-5.2 218.68-7.55 218.68-12.25L218.68-12.25Q218.68-17.25 216.5-19.7 214.33-22.15 210.58-22.15L210.58-22.15Q206.83-22.15 204.86-19.73 202.88-17.3 202.88-12.45ZM198.63-12.5L198.63-12.5Q198.63-16.3 199.83-18.82 201.03-21.35 202.88-22.88 204.73-24.4 206.86-25.03 208.98-25.65 210.88-25.65L210.88-25.65Q212.68-25.65 214.81-25.08 216.93-24.5 218.73-23.03 220.53-21.55 221.73-19.07 222.93-16.6 222.93-12.8L222.93-12.8Q222.93-8.85 221.71-6.25 220.48-3.65 218.63-2.13 216.78-0.6 214.63 0.03 212.48 0.65 210.63 0.65L210.63 0.65Q208.73 0.65 206.63 0.05 204.53-0.55 202.75-2.02 200.98-3.5 199.81-6.05 198.63-8.6 198.63-12.5ZM228.78 11.4L228.78-19.35Q228.78-21.15 228.53-24.7L228.53-24.7 232.23-25.2 232.68-22.5Q233.68-23.35 234.75-24.03 235.83-24.7 237.1-25.18 238.38-25.65 239.83-25.65L239.83-25.65Q241.88-25.65 243.7-24.95 245.53-24.25 246.9-22.7 248.28-21.15 249.08-18.68 249.88-16.2 249.88-12.6L249.88-12.6Q249.88-8.95 248.8-6.43 247.73-3.9 246-2.33 244.28-0.75 242.1-0.05 239.93 0.65 237.68 0.65L237.68 0.65Q235.28 0.6 232.78 0.05L232.78 0.05 232.78 10.9 228.78 11.4ZM237.68-2.85L237.68-2.85Q239.78-2.85 241.28-3.6 242.78-4.35 243.75-5.68 244.73-7 245.18-8.72 245.63-10.45 245.63-12.4L245.63-12.4Q245.63-14.15 245.3-15.9 244.98-17.65 244.25-19.03 243.53-20.4 242.33-21.28 241.13-22.15 239.38-22.15L239.38-22.15Q238.08-22.15 236.93-21.68 235.78-21.2 234.75-20.53 233.73-19.85 232.78-19L232.78-19 232.78-3.65Q233.33-3.45 234-3.28 234.68-3.1 235.6-2.98 236.53-2.85 237.68-2.85ZM273.57-3.95L274.32-0.6Q273.18-0.25 271.95 0 270.73 0.25 269.25 0.45 267.77 0.65 266.18 0.65L266.18 0.65Q263.68 0.65 261.52-0.05 259.38-0.75 257.77-2.3 256.18-3.85 255.25-6.33 254.32-8.8 254.32-12.4L254.32-12.4Q254.32-15.65 255.22-18.13 256.13-20.6 257.7-22.28 259.27-23.95 261.4-24.8 263.52-25.65 266.02-25.65L266.02-25.65Q268.48-25.65 270.27-24.7 272.07-23.75 273.25-22.13 274.43-20.5 275-18.32 275.57-16.15 275.57-13.75L275.57-13.75 274.82-11.55 258.68-11.55Q258.68-10 259.07-8.45 259.48-6.9 260.45-5.65 261.43-4.4 263-3.63 264.57-2.85 266.93-2.85L266.93-2.85Q268.43-2.85 269.68-3.03 270.93-3.2 271.85-3.43 272.77-3.65 273.57-3.95L273.57-3.95ZM258.82-14.75L271.43-14.75Q271.43-15.1 271.27-16.3 271.13-17.5 270.57-18.8 270.02-20.1 268.88-21.13 267.73-22.15 265.82-22.15L265.82-22.15Q263.73-22.15 262.38-21.28 261.02-20.4 260.23-19.2 259.43-18 259.13-16.75 258.82-15.5 258.82-14.75L258.82-14.75ZM281.07 0L281.07-21.1Q281.07-22.25 280.82-24.7L280.82-24.7 284.52-25.2 284.92-21.55 284.97-21.55Q285.87-22.7 286.72-23.55 287.57-24.4 288.5-25.03 289.42-25.65 290.27-25.65L290.27-25.65Q291.42-25.7 293.47-25.4L293.47-25.4 292.57-21.55Q290.92-21.85 290.27-21.8L290.27-21.8Q289.42-21.8 288.47-21 287.52-20.2 286.82-19.3L286.82-19.3Q285.92-18.2 285.07-16.8L285.07-16.8 285.07 0 281.07 0ZM312.17-24.6L311.47-21.05Q309.37-21.7 307.75-21.93 306.12-22.15 304.77-22.15L304.77-22.15Q303.02-22.15 301.85-21.3 300.67-20.45 300.67-19.1L300.67-19.1Q300.72-17.9 301.72-17.05 302.72-16.2 304.05-15.53 305.37-14.85 307-14.05 308.62-13.25 310.05-12.25 311.47-11.25 312.37-9.85 313.27-8.45 313.32-6.5L313.32-6.5Q313.27-4.4 312.4-3.03 311.52-1.65 310.15-0.83 308.77 0 307.17 0.33 305.57 0.65 304.17 0.65L304.17 0.65Q302.37 0.65 300.45 0.45 298.52 0.25 296.32-0.4L296.32-0.4 297.07-4Q299.32-3.4 301.17-3.13 303.02-2.85 304.22-2.85L304.22-2.85Q305.12-2.85 306-3.05 306.87-3.25 307.57-3.63 308.27-4 308.7-4.6 309.12-5.2 309.12-5.95L309.12-5.95Q309.07-7.35 308.17-8.33 307.27-9.3 305.85-10.08 304.42-10.85 302.8-11.63 301.17-12.4 299.75-13.43 298.32-14.45 297.37-15.88 296.42-17.3 296.42-19.4L296.42-19.4Q296.42-20.9 297.2-22.08 297.97-23.25 299.2-24.03 300.42-24.8 301.9-25.23 303.37-25.65 304.77-25.65L304.77-25.65Q306.22-25.65 308.02-25.43 309.82-25.2 312.17-24.6L312.17-24.6Z" opacity="1" transform="matrix(1,0,0,1,0,0)" fill="#06413d" class="wordmark-text-0" data-fill-palette-color="quaternary" id="text-0"></path></svg></g></svg></g><g transform="matrix(1,0,0,1,0,42.044232550691575)"><svg viewBox="0 0 213.15844122715708 20.028309913961067" height="20.028309913961067" width="213.15844122715708"><g transform="matrix(1,0,0,1,0,0)"><svg width="213.15844122715708" viewBox="2.4399999999999995 -31.74 436.52 41.019999999999996" height="20.028309913961067" data-palette-color="#06413d"><path d="M26.76-2.25L26.76-2.25Q26.76-0.2 27.34 0.1L27.34 0.1Q27.69 0.24 28.27 0.24L28.27 0.24 28.27-8.98 27.1-8.98Q24.61-0.93 17.14-0.88L17.14-0.88Q10.79-0.88 8.5-7.28L8.5-7.28Q7.37-10.4 7.37-14.65L7.37-14.65Q7.37-23.78 12.4-27.05L12.4-27.05Q14.6-28.42 17.29-28.42L17.29-28.42Q23.39-28.42 26.12-22.66L26.12-22.66Q26.61-21.63 26.95-20.56L26.95-20.56 28.13-20.56 27.98-29.54Q26.9-29.54 26.66-28.86L26.66-28.86Q26.51-28.27 26.51-26.95L26.51-26.95Q25.1-28.37 21.68-29.25L21.68-29.25Q19.43-29.79 17.09-29.79L17.09-29.79Q9.38-29.79 5.27-24.07L5.27-24.07Q2.44-20.02 2.44-14.75L2.44-14.75Q2.44-8.35 6.4-4L6.4-4Q10.6 0.49 17.33 0.49L17.33 0.49Q22.27 0.44 26.76-2.25ZM42.87-1.22L42.87-1.22 39.36-1.22 39.36-10.94Q39.36-15.38 42.09-18.07L42.09-18.07Q43.16-19.09 43.9-19.14L43.9-19.14Q44.73-19.14 45.41-17.92L45.41-17.92Q46.19-16.55 46.88-16.36L46.88-16.36Q47.17-16.26 47.46-16.26L47.46-16.26Q48.93-16.26 49.32-17.68L49.32-17.68Q49.41-17.97 49.41-18.26L49.41-18.26Q49.41-20.46 47.17-20.95L47.17-20.95Q46.68-21.04 46.24-21.04L46.24-21.04Q43.31-21.04 41.02-18.55L41.02-18.55Q39.94-17.38 39.31-15.92L39.31-15.92 39.11-20.75 32.03-20.75 32.03-19.53 35.69-19.53 35.69-4.15Q35.69-1.9 34.42-1.46L34.42-1.46Q33.69-1.22 32.03-1.22L32.03-1.22 32.03 0 44.09 0Q44.09-1.07 43.36-1.17L43.36-1.17Q43.16-1.22 42.87-1.22ZM61.82-20.02L61.82-20.02Q65.23-20.02 66.36-17.14L66.36-17.14Q66.75-16.21 66.75-15.14L66.75-15.14Q66.75-12.7 64.4-12.16L64.4-12.16Q63.18-11.91 60.94-11.96L60.94-11.96 55.76-12.11Q56.01-17.72 59.42-19.43L59.42-19.43Q60.55-20.02 61.82-20.02ZM70.31-4.69L70.31-4.69 69.09-5.13Q67.38-1.42 63.57-0.93L63.57-0.93Q63.09-0.88 62.65-0.88L62.65-0.88Q57.52-0.88 56.2-6.98L56.2-6.98Q55.81-8.69 55.76-10.74L55.76-10.74 61.62-10.64Q67.58-10.55 69.29-11.77L69.29-11.77Q70.61-12.74 70.61-14.55L70.61-14.55Q70.61-17.87 67.24-19.82L67.24-19.82Q64.84-21.24 61.72-21.24L61.72-21.24Q55.62-21.24 52.98-16.16L52.98-16.16Q51.61-13.53 51.61-10.21L51.61-10.21Q51.61-4.15 55.96-1.22L55.96-1.22Q58.54 0.49 61.87 0.49L61.87 0.49Q67.14 0.49 69.63-3.32L69.63-3.32Q70.02-4 70.31-4.69ZM91.41 0.49L91.41 0.49Q95.17 0.49 95.56-4.05L95.56-4.05Q95.61-4.35 95.61-4.59L95.61-4.59 94.34-4.64Q93.99-1.07 92.43-1.03L92.43-1.03Q91.16-1.12 91.11-3.56L91.11-3.56 91.11-13.87Q91.11-20.85 84.13-21.24L84.13-21.24Q83.69-21.24 83.25-21.24L83.25-21.24Q77.78-21.24 75.93-18.7L75.93-18.7Q75.34-17.87 75.34-17.04L75.34-17.04Q75.34-15.53 76.76-15.28L76.76-15.28Q77-15.23 77.25-15.23L77.25-15.23Q78.37-15.23 78.91-16.65L78.91-16.65Q79.59-18.46 79.83-18.8L79.83-18.8Q80.76-20.02 82.71-20.02L82.71-20.02Q87.3-19.73 87.45-14.99L87.45-14.99 87.45-11.91Q75.98-11.91 74.32-7.13L74.32-7.13Q74.02-6.2 74.02-5.13L74.02-5.13Q74.02-1.42 77.29-0.05L77.29-0.05Q78.61 0.49 80.08 0.49L80.08 0.49Q83.64 0.49 86.08-1.95L86.08-1.95Q86.96-2.88 87.4-3.91L87.4-3.91Q87.99 0.44 91.41 0.49ZM81.69-1.46L81.69-1.46Q78.71-1.46 78.03-4.44L78.03-4.44Q77.88-5.13 77.88-5.96L77.88-5.96Q77.88-9.23 81.64-10.11L81.64-10.11Q83.64-10.55 87.45-10.6L87.45-10.6 87.45-6.69Q86.72-3.32 83.89-1.95L83.89-1.95Q82.76-1.46 81.69-1.46ZM96.83-20.75L96.83-19.53 100.24-19.53 100.24-5.76Q100.59 0.34 105.86 0.54L105.86 0.54Q110.35 0.54 111.47-4.98L111.47-4.98Q111.47-5.03 111.47-5.08L111.47-5.08 110.16-5.32Q108.94-1.27 106.59-0.93L106.59-0.93Q103.96-1.03 103.91-4.69L103.91-4.69 103.91-19.53 111.47-19.53 111.47-20.75 103.91-20.75 103.91-26.42 100.24-25.39 100.24-20.75 96.83-20.75ZM123.19-1.22L123.19-1.22 120.75-1.22 120.75-20.75 113.18-20.75 113.18-19.53 117.09-19.53 117.09-4.15Q117.09-1.9 115.58-1.42L115.58-1.42Q114.84-1.22 113.18-1.22L113.18-1.22 113.18 0 124.41 0Q124.41-1.07 123.68-1.17L123.68-1.17Q123.44-1.22 123.19-1.22ZM121.34-27.88L121.34-27.88Q121.34-29.59 119.82-30.32L119.82-30.32Q119.24-30.57 118.7-30.57L118.7-30.57Q116.99-30.57 116.26-29L116.26-29Q116.02-28.47 116.02-27.88L116.02-27.88Q116.02-26.07 117.63-25.39L117.63-25.39Q118.16-25.2 118.7-25.2L118.7-25.2Q120.41-25.2 121.09-26.76L121.09-26.76Q121.34-27.29 121.34-27.88ZM132.08-19.53L135.5-19.53 135.5-20.75 126.03-20.75 126.03-19.53 128.22-19.53 134.18-3.17Q135.16-0.44 136.33 0L136.33 0Q136.91 0.24 137.79 0.24L137.79 0.24 138.43 0.24 145.31-17.82Q145.9-19.34 146.73-19.48L146.73-19.48Q146.97-19.53 147.17-19.53L147.17-19.53Q148.24-19.53 148.34-20.26L148.34-20.26Q148.39-20.51 148.39-20.75L148.39-20.75 140.87-20.75 140.87-19.53 144.53-19.53 138.33-2.88 132.08-19.53ZM160.01-1.22L160.01-1.22 157.57-1.22 157.57-20.75 150-20.75 150-19.53 153.91-19.53 153.91-4.15Q153.91-1.9 152.39-1.42L152.39-1.42Q151.66-1.22 150-1.22L150-1.22 150 0 161.23 0Q161.23-1.07 160.5-1.17L160.5-1.17Q160.25-1.22 160.01-1.22ZM158.15-27.88L158.15-27.88Q158.15-29.59 156.64-30.32L156.64-30.32Q156.05-30.57 155.52-30.57L155.52-30.57Q153.81-30.57 153.08-29L153.08-29Q152.83-28.47 152.83-27.88L152.83-27.88Q152.83-26.07 154.44-25.39L154.44-25.39Q154.98-25.2 155.52-25.2L155.52-25.2Q157.23-25.2 157.91-26.76L157.91-26.76Q158.15-27.29 158.15-27.88ZM163.67-20.75L163.67-19.53 167.09-19.53 167.09-5.76Q167.43 0.34 172.71 0.54L172.71 0.54Q177.2 0.54 178.32-4.98L178.32-4.98Q178.32-5.03 178.32-5.08L178.32-5.08 177-5.32Q175.78-1.27 173.44-0.93L173.44-0.93Q170.8-1.03 170.75-4.69L170.75-4.69 170.75-19.53 178.32-19.53 178.32-20.75 170.75-20.75 170.75-26.42 167.09-25.39 167.09-20.75 163.67-20.75ZM183.59 7.76L183.59 7.76Q182.81 7.76 182.42 6.59L182.42 6.59Q181.88 5.13 181.4 4.79L181.4 4.79Q180.96 4.49 180.37 4.49L180.37 4.49Q178.81 4.49 178.56 5.86L178.56 5.86Q178.52 6.05 178.52 6.2L178.52 6.2Q178.52 8.06 180.66 8.89L180.66 8.89Q181.64 9.28 182.71 9.28L182.71 9.28Q186.57 9.28 189.4 4.54L189.4 4.54Q190.58 2.64 191.65 0L191.65 0 198.88-17.82Q199.37-19.19 199.95-19.38L199.95-19.38Q200.29-19.48 200.73-19.48L200.73-19.48Q201.71-19.48 201.86-20.02L201.86-20.02Q201.95-20.31 201.95-20.75L201.95-20.75 194.53-20.75 194.53-19.48 198.1-19.48 191.85-3.86 185.16-19.48 188.43-19.48 188.43-20.75 178.91-20.75 178.91-19.48 181.3-19.48 190.09 0Q187.35 6.45 184.96 7.47L184.96 7.47Q184.28 7.76 183.59 7.76ZM230.81 0.49L230.81 0.49Q234.57 0.49 234.96-4.05L234.96-4.05Q235.01-4.35 235.01-4.59L235.01-4.59 233.74-4.64Q233.4-1.07 231.84-1.03L231.84-1.03Q230.57-1.12 230.52-3.56L230.52-3.56 230.52-13.87Q230.52-20.85 223.54-21.24L223.54-21.24Q223.1-21.24 222.66-21.24L222.66-21.24Q217.19-21.24 215.33-18.7L215.33-18.7Q214.75-17.87 214.75-17.04L214.75-17.04Q214.75-15.53 216.16-15.28L216.16-15.28Q216.41-15.23 216.65-15.23L216.65-15.23Q217.77-15.23 218.31-16.65L218.31-16.65Q218.99-18.46 219.24-18.8L219.24-18.8Q220.17-20.02 222.12-20.02L222.12-20.02Q226.71-19.73 226.86-14.99L226.86-14.99 226.86-11.91Q215.38-11.91 213.72-7.13L213.72-7.13Q213.43-6.2 213.43-5.13L213.43-5.13Q213.43-1.42 216.7-0.05L216.7-0.05Q218.02 0.49 219.48 0.49L219.48 0.49Q223.05 0.49 225.49-1.95L225.49-1.95Q226.37-2.88 226.81-3.91L226.81-3.91Q227.39 0.44 230.81 0.49ZM221.09-1.46L221.09-1.46Q218.12-1.46 217.43-4.44L217.43-4.44Q217.29-5.13 217.29-5.96L217.29-5.96Q217.29-9.23 221.04-10.11L221.04-10.11Q223.05-10.55 226.86-10.6L226.86-10.6 226.86-6.69Q226.12-3.32 223.29-1.95L223.29-1.95Q222.17-1.46 221.09-1.46ZM246.24-1.22L246.24-1.22 244.04-1.22 244.04-11.77Q244.19-16.31 247.27-18.31L247.27-18.31Q248.58-19.14 249.95-19.14L249.95-19.14Q252.93-19.14 254-16.36L254-16.36Q254.44-15.23 254.44-13.82L254.44-13.82 254.44-4.15Q254.44-1.9 253.17-1.46L253.17-1.46Q252.44-1.22 250.78-1.22L250.78-1.22 250.78 0 261.77 0Q261.77-1.07 261.04-1.17L261.04-1.17Q260.84-1.22 260.55-1.22L260.55-1.22 258.11-1.22 258.11-13.33Q258.11-18.21 254.74-20.31L254.74-20.31Q253.17-21.24 251.37-21.24L251.37-21.24Q247.75-21.24 245.41-18.36L245.41-18.36Q244.53-17.24 243.99-15.87L243.99-15.87 243.8-20.75 236.72-20.75 236.72-19.53 240.38-19.53 240.38-4.15Q240.38-1.9 239.11-1.46L239.11-1.46Q238.38-1.22 236.72-1.22L236.72-1.22 236.72 0 247.46 0Q247.46-1.07 246.73-1.17L246.73-1.17Q246.53-1.22 246.24-1.22ZM281.2-5.18L281.59 0 288.57 0Q288.57-1.07 287.84-1.17L287.84-1.17Q287.65-1.22 287.35-1.22L287.35-1.22 284.91-1.22 284.81-31.74 276.51-31.74 276.51-30.52 281.15-30.52 281.15-18.6Q278.76-21.24 274.71-21.24L274.71-21.24Q269.34-21.24 266.6-16.46L266.6-16.46Q264.94-13.53 264.94-9.86L264.94-9.86Q264.94-3.81 268.75-1.03L268.75-1.03Q270.9 0.49 273.49 0.49L273.49 0.49Q278.81 0.39 281.2-5.18L281.2-5.18ZM269.09-10.45L269.09-10.45Q269.09-17.33 272.8-19.38L272.8-19.38Q273.97-20.02 275.39-20.02L275.39-20.02Q278.96-20.02 280.47-16.21L280.47-16.21Q281.3-14.16 281.3-11.38L281.3-11.38Q281.3-5.52 278.37-2.88L278.37-2.88Q276.81-1.46 274.8-1.46L274.8-1.46Q270.8-1.46 269.58-6.35L269.58-6.35Q269.09-8.15 269.09-10.45ZM326.03-2.25L326.03-2.25Q326.03-0.2 326.61 0.1L326.61 0.1Q326.95 0.24 327.54 0.24L327.54 0.24 327.54-8.98 326.37-8.98Q323.88-0.93 316.41-0.88L316.41-0.88Q310.06-0.88 307.76-7.28L307.76-7.28Q306.64-10.4 306.64-14.65L306.64-14.65Q306.64-23.78 311.67-27.05L311.67-27.05Q313.87-28.42 316.55-28.42L316.55-28.42Q322.66-28.42 325.39-22.66L325.39-22.66Q325.88-21.63 326.22-20.56L326.22-20.56 327.39-20.56 327.25-29.54Q326.17-29.54 325.93-28.86L325.93-28.86Q325.78-28.27 325.78-26.95L325.78-26.95Q324.37-28.37 320.95-29.25L320.95-29.25Q318.7-29.79 316.36-29.79L316.36-29.79Q308.64-29.79 304.54-24.07L304.54-24.07Q301.71-20.02 301.71-14.75L301.71-14.75Q301.71-8.35 305.66-4L305.66-4Q309.86 0.49 316.6 0.49L316.6 0.49Q321.53 0.44 326.03-2.25ZM341.06-1.22L341.06-1.22 338.62-1.22 338.62-11.77Q338.62-16.21 341.7-18.21L341.7-18.21Q342.97-19.04 344.34-19.04L344.34-19.04Q347.31-19.04 348.49-16.26L348.49-16.26Q349.02-14.94 349.02-13.33L349.02-13.33 349.02-4.15Q349.02-1.9 347.95-1.46L347.95-1.46Q347.27-1.22 345.61-1.22L345.61-1.22 345.61 0 356.35 0Q356.35-1.07 355.62-1.17L355.62-1.17Q355.42-1.22 355.13-1.22L355.13-1.22 352.69-1.22 352.69-13.33Q352.69-18.65 349.17-20.56L349.17-20.56Q347.8-21.24 346.24-21.24L346.24-21.24Q342.63-21.24 340.19-18.6L340.19-18.6Q339.16-17.48 338.62-16.06L338.62-16.06 338.62-31.74 331.3-31.74 331.3-30.52 334.96-30.52 334.96-4.15Q334.96-1.9 333.69-1.46L333.69-1.46Q332.96-1.22 331.3-1.22L331.3-1.22 331.3 0 342.29 0Q342.29-1.07 341.55-1.17L341.55-1.17Q341.36-1.22 341.06-1.22ZM376.71 0.49L376.71 0.49Q380.47 0.49 380.86-4.05L380.86-4.05Q380.91-4.35 380.91-4.59L380.91-4.59 379.64-4.64Q379.3-1.07 377.73-1.03L377.73-1.03Q376.46-1.12 376.42-3.56L376.42-3.56 376.42-13.87Q376.42-20.85 369.43-21.24L369.43-21.24Q368.99-21.24 368.55-21.24L368.55-21.24Q363.09-21.24 361.23-18.7L361.23-18.7Q360.64-17.87 360.64-17.04L360.64-17.04Q360.64-15.53 362.06-15.28L362.06-15.28Q362.3-15.23 362.55-15.23L362.55-15.23Q363.67-15.23 364.21-16.65L364.21-16.65Q364.89-18.46 365.14-18.8L365.14-18.8Q366.06-20.02 368.02-20.02L368.02-20.02Q372.61-19.73 372.75-14.99L372.75-14.99 372.75-11.91Q361.28-11.91 359.62-7.13L359.62-7.13Q359.33-6.2 359.33-5.13L359.33-5.13Q359.33-1.42 362.6-0.05L362.6-0.05Q363.92 0.49 365.38 0.49L365.38 0.49Q368.95 0.49 371.39-1.95L371.39-1.95Q372.27-2.88 372.71-3.91L372.71-3.91Q373.29 0.44 376.71 0.49ZM366.99-1.46L366.99-1.46Q364.01-1.46 363.33-4.44L363.33-4.44Q363.18-5.13 363.18-5.96L363.18-5.96Q363.18-9.23 366.94-10.11L366.94-10.11Q368.95-10.55 372.75-10.6L372.75-10.6 372.75-6.69Q372.02-3.32 369.19-1.95L369.19-1.95Q368.07-1.46 366.99-1.46ZM393.55-1.22L393.55-1.22 390.04-1.22 390.04-10.94Q390.04-15.38 392.77-18.07L392.77-18.07Q393.85-19.09 394.58-19.14L394.58-19.14Q395.41-19.14 396.09-17.92L396.09-17.92Q396.88-16.55 397.56-16.36L397.56-16.36Q397.85-16.26 398.14-16.26L398.14-16.26Q399.61-16.26 400-17.68L400-17.68Q400.1-17.97 400.1-18.26L400.1-18.26Q400.1-20.46 397.85-20.95L397.85-20.95Q397.36-21.04 396.92-21.04L396.92-21.04Q393.99-21.04 391.7-18.55L391.7-18.55Q390.63-17.38 389.99-15.92L389.99-15.92 389.79-20.75 382.71-20.75 382.71-19.53 386.38-19.53 386.38-4.15Q386.38-1.9 385.11-1.46L385.11-1.46Q384.38-1.22 382.71-1.22L382.71-1.22 382.71 0 394.78 0Q394.78-1.07 394.04-1.17L394.04-1.17Q393.85-1.22 393.55-1.22ZM411.33-1.22L411.33-1.22 409.13-1.22 409.13-11.77Q409.28-16.06 412.11-18.16L412.11-18.16Q413.43-19.14 414.75-19.14L414.75-19.14Q417.19-19.14 418.12-16.46L418.12-16.46Q418.51-15.28 418.51-13.82L418.51-13.82 418.51-4.15Q418.51-1.9 417.43-1.46L417.43-1.46Q416.75-1.22 415.09-1.22L415.09-1.22 415.09 0 425.59 0Q425.59-1.07 424.85-1.17L424.85-1.17Q424.66-1.22 424.37-1.22L424.37-1.22 422.17-1.22 422.17-13.33 422.17-13.72Q422.95-17.29 425.63-18.7L425.63-18.7Q426.66-19.19 427.59-19.19L427.59-19.19Q430.08-19.19 431.1-16.6L431.1-16.6Q431.59-15.38 431.59-13.82L431.59-13.82 431.59-4.15Q431.59-1.9 430.52-1.46L430.52-1.46Q429.83-1.22 428.17-1.22L428.17-1.22 428.17 0 438.96 0Q438.96-1.07 438.23-1.17L438.23-1.17Q438.04-1.22 437.74-1.22L437.74-1.22 435.25-1.22 435.25-13.33Q435.25-18.36 431.98-20.36L431.98-20.36Q430.52-21.24 428.81-21.24L428.81-21.24Q425.1-21.24 422.85-17.77L422.85-17.77Q422.27-16.89 421.88-15.92L421.88-15.92Q421-19.78 418.02-20.9L418.02-20.9Q417.14-21.24 416.21-21.24L416.21-21.24Q412.7-21.24 410.4-18.26L410.4-18.26Q409.57-17.19 409.08-15.87L409.08-15.87 408.89-20.75 401.81-20.75 401.81-19.53 405.47-19.53 405.47-4.15Q405.47-1.9 404.2-1.46L404.2-1.46Q403.47-1.22 401.81-1.22L401.81-1.22 401.81 0 412.55 0Q412.55-1.03 411.82-1.17L411.82-1.17Q411.57-1.22 411.33-1.22Z" opacity="1" transform="matrix(1,0,0,1,0,0)" fill="#06413d" class="slogan-text-1" data-fill-palette-color="quaternary" id="text-1"></path></svg></g></svg></g></svg></g></svg></g><g transform="matrix(1,0,0,1,63.687093770503566,0)"><svg viewBox="0 0 85.78425368614995 85.78425368614995" height="85.78425368614995" width="85.78425368614995"><g><svg xmlns="http://www.w3.org/2000/svg" xmlns:xlink="http://www.w3.org/1999/xlink" version="1.1" x="0" y="0" viewBox="2.1 2.299999999999997 95.4 95.4" style="enable-background:new 0 0 100 100;" xml:space="preserve" height="85.78425368614995" width="85.78425368614995" class="icon-icon-0" data-fill-palette-color="quaternary" id="icon-0"><path d="M2.1 50c0 26.3 21.4 47.7 47.7 47.7 26.3 0 47.7-21.4 47.7-47.7 0-26.3-21.4-47.7-47.7-47.7C23.5 2.3 2.1 23.7 2.1 50zM40.9 27.8c0 1.2-1 2.2-2.2 2.2s-2.2-1-2.2-2.2 1-2.2 2.2-2.2S40.9 26.6 40.9 27.8zM87.6 26.3H43.7c-0.6-2.1-2.6-3.7-4.9-3.7-2.9 0-5.2 2.3-5.2 5.2s2.3 5.2 5.2 5.2c2.3 0 4.3-1.6 4.9-3.7h45.6c3.3 6.2 5.1 13.3 5.1 20.7 0 9.5-3 18.4-8.1 25.6l-4-2.8c-2.3-1.7-5.1-2.5-7.9-2.5H33.8c-0.6-2.1-2.6-3.7-4.9-3.7-2.9 0-5.2 2.3-5.2 5.2S26 77 28.9 77c2.3 0 4.3-1.6 4.9-3.7h40.7c2.2 0 4.4 0.7 6.2 2l3.9 2.8c-8.2 10.2-20.7 16.7-34.8 16.7-24.6 0-44.7-20-44.7-44.7 0-5.8 1.1-11.4 3.2-16.6l9.1 12.3c2.6 3.5 6.7 5.6 11 5.6h45.1c0.6 2.1 2.6 3.7 4.9 3.7 2.9 0 5.2-2.3 5.2-5.2s-2.3-5.2-5.2-5.2c-2.3 0-4.3 1.6-4.9 3.7H28.4c-3.4 0-6.6-1.6-8.6-4.3L9.7 30.3c7.3-14.8 22.5-25 40.1-25C65.7 5.3 79.7 13.7 87.6 26.3zM31 71.8c0 1.2-1 2.2-2.2 2.2s-2.2-1-2.2-2.2 1-2.2 2.2-2.2S31 70.6 31 71.8zM76.2 49.8c0-1.2 1-2.2 2.2-2.2s2.2 1 2.2 2.2-1 2.2-2.2 2.2S76.2 51 76.2 49.8z" fill="#06413d" data-fill-palette-color="quaternary"></path></svg></g></svg></g><g></g></svg></g></svg></g></svg></g><defs></defs></svg><rect width="342.8515585177538" height="342.8515585177538" fill="none" stroke="none" visibility="hidden"></rect></g></svg></g></svg>